<?xml version="1.0" encoding="UTF-8" standalone="no"?>
<svg
   xmlns:dc="http://purl.org/dc/elements/1.1/"
   xmlns:cc="http://creativecommons.org/ns#"
   xmlns:rdf="http://www.w3.org/1999/02/22-rdf-syntax-ns#"
   xmlns:svg="http://www.w3.org/2000/svg"
   xmlns="http://www.w3.org/2000/svg"
   xmlns:sodipodi="http://sodipodi.sourceforge.net/DTD/sodipodi-0.dtd"
   xmlns:inkscape="http://www.inkscape.org/namespaces/inkscape"
   viewBox="0 0 153.37453 28.086248"
   version="1.1"
   id="svg76"
   sodipodi:docname="Asset 1.svg"
   width="153.37453"
   height="28.086248"
   inkscape:version="0.92.2 5c3e80d, 2017-08-06"
   inkscape:export-filename="/home/xeroc/BlockchainProjectsBV/branding/logo/Asset 1.png"
   inkscape:export-xdpi="600"
   inkscape:export-ydpi="600">
  <metadata
     id="metadata80">
    <rdf:RDF>
      <cc:Work
         rdf:about="">
        <dc:format>image/svg+xml</dc:format>
        <dc:type
           rdf:resource="http://purl.org/dc/dcmitype/StillImage" />
      </cc:Work>
    </rdf:RDF>
  </metadata>
  <sodipodi:namedview
     pagecolor="#ffffff"
     bordercolor="#666666"
     borderopacity="1"
     objecttolerance="10"
     gridtolerance="10"
     guidetolerance="10"
     inkscape:pageopacity="0"
     inkscape:pageshadow="2"
     inkscape:window-width="1680"
     inkscape:window-height="1024"
     id="namedview78"
     showgrid="false"
     inkscape:zoom="2.6784492"
     inkscape:cx="43.556259"
     inkscape:cy="14.046248"
     inkscape:window-x="0"
     inkscape:window-y="0"
     inkscape:window-maximized="1"
     inkscape:current-layer="Layer_2" />
  <defs
     id="defs4">
    <style
       id="style2">.cls-1{font-size:10px;font-family:ProximaNova-Semibold, Proxima Nova;font-weight:700;letter-spacing:0.07em;}.cls-1,.cls-4{fill:#021442;}.cls-2{letter-spacing:0.05em;}.cls-3{fill:#95aaba;}.cls-5{opacity:0.11;}.cls-6{fill:#132636;}.cls-7{fill:none;stroke:#fff;stroke-linecap:round;stroke-linejoin:round;}</style>
  </defs>
  <title
     id="title6">Asset 1</title>
  <g
     id="Layer_2"
     data-name="Layer 2"
     transform="translate(0.0036732)">
    <text
       style="font-weight:700;font-size:10px;font-family:ProximaNova-Semibold, 'Proxima Nova';letter-spacing:0.07em;fill:#021442"
       id="text12"
       class="cls-1"
       x="34.996243"
       y="18.99">
      <tspan
         style="font-style:normal;font-variant:normal;font-weight:bold;font-stretch:normal;font-family:sans-serif;-inkscape-font-specification:'sans-serif Bold'"
         id="tspan4609">BlockchainProjects</tspan>
    </text>
    <polygon
       style="fill:#95aaba"
       id="polygon14"
       points="16.09,9.52 10.29,1.12 5.29,9.52 "
       class="cls-3" />
    <polygon
       style="fill:#021442"
       id="polygon16"
       points="20.78,0.75 26.01,9.52 15.56,9.52 "
       class="cls-4" />
    <path
       style="fill:#021442"
       inkscape:connector-curvature="0"
       id="path18"
       d="m 20.78,1.12 5,8.41 h -10 l 5,-8.41 m 0,-0.56 -0.21,0.36 -5,8.31 -0.23,0.29 h 10.9 L 26,9.24 21,0.88 Z"
       class="cls-4" />
    <polygon
       style="fill:#95aaba"
       id="polygon20"
       points="20.55,0.52 15.54,8.93 10.53,0.52 "
       class="cls-3" />
    <g
       style="opacity:0.11000001"
       id="g24"
       class="cls-5">
      <polygon
         style="fill:#132636"
         id="polygon22"
         points="20.55,18.52 15.54,10.12 10.53,18.52 "
         class="cls-6" />
    </g>
    <polygon
       style="fill:#021442"
       id="polygon26"
       points="10.53,18.52 5.84,9.53 1.04,18.52 "
       class="cls-4" />
    <polygon
       style="fill:#021442"
       id="polygon28"
       points="15.54,9.75 20.77,18.52 10.31,18.52 "
       class="cls-4" />
    <path
       style="fill:#021442"
       inkscape:connector-curvature="0"
       id="path30"
       d="m 15.54,10.12 5,8.41 h -10 l 5,-8.41 m 0,-0.49 -0.21,0.36 -5,8.28 -0.23,0.26 H 21 l -0.23,-0.26 -5,-8.34 -0.21,-0.3 z"
       class="cls-4" />
    <polygon
       style="fill:#95aaba"
       id="polygon32"
       points="31.04,18.52 26.03,9.12 21.02,18.52 "
       class="cls-3" />
    <polygon
       style="fill:#021442"
       id="polygon34"
       points="15.52,9.52 10.28,18.32 6.09,9.52 "
       class="cls-4" />
    <path
       style="fill:#021442"
       inkscape:connector-curvature="0"
       id="path36"
       d="m 15.3,9.52 -5,8.41 -4,-8.41 h 9.2 m 0.24,0 H 5.89 l 0.17,0.44 4,8.45 0.2,0.44 0.24,-0.39 5,-8.48 0.23,-0.45 z"
       class="cls-4" />
    <path
       style="fill:#95aaba"
       inkscape:connector-curvature="0"
       id="path38"
       d="M 9.86,18.34"
       class="cls-3" />
    <polygon
       style="fill:#021442"
       id="polygon40"
       points="15.78,9.52 20.55,18.58 25.79,9.52 "
       class="cls-4" />
    <polygon
       style="fill:#95aaba"
       id="polygon42"
       points="15.3,27.52 10.29,19.12 5.29,27.52 "
       class="cls-3" />
    <polygon
       style="fill:#95aaba"
       id="polygon44"
       points="11.05,18.52 5.05,26.93 0.04,18.52 "
       class="cls-3" />
    <polygon
       style="fill:#021442"
       id="polygon46"
       points="20.78,18.75 26.01,27.52 15.56,27.52 "
       class="cls-4" />
    <path
       style="fill:#021442"
       inkscape:connector-curvature="0"
       id="path48"
       d="m 20.78,19.12 5,8.41 h -10 l 5,-8.41 m 0,-0.43 -0.21,0.36 -5,8.25 -0.23,0.22 h 10.9 L 26,27.3 21,19 20.79,18.72 Z"
       class="cls-4" />
    <polygon
       style="fill:#021442"
       id="polygon50"
       points="20.77,18.52 15.54,27.3 10.31,18.52 "
       class="cls-4" />
    <path
       style="fill:#021442"
       inkscape:connector-curvature="0"
       id="path52"
       d="m 20.55,18.52 -5,8.41 -5,-8.41 h 10 m 0.49,0 H 10.09 l 0.23,0.49 5,8.46 0.21,0.39 0.21,-0.35 5,-8.51 0.23,-0.48 z"
       class="cls-4" />
    <polygon
       style="fill:#95aaba"
       id="polygon54"
       points="31.04,18.52 25.79,27.11 20.02,18.52 "
       class="cls-3" />
    <polyline
       style="fill:none;stroke:#ffffff;stroke-linecap:round;stroke-linejoin:round"
       id="polyline56"
       points="13.88 12.9 10.5 19.02 0.5 19.02 10.41 0.53 13.67 6.22"
       class="cls-7" />
    <line
       style="fill:none;stroke:#ffffff;stroke-linecap:round;stroke-linejoin:round"
       id="line58"
       y2="15.04"
       x2="19.02"
       y1="9.0200005"
       x1="15.5"
       class="cls-7" />
    <polyline
       style="fill:none;stroke:#ffffff;stroke-linecap:round;stroke-linejoin:round"
       id="polyline60"
       points="20.5 19.02 25.79 27.58 5.5 27.4 8.54 22.05"
       class="cls-7" />
    <polyline
       style="fill:none;stroke:#ffffff;stroke-linecap:round;stroke-linejoin:round"
       id="polyline62"
       points="18.69 22.02 15.5 27.4 10.5 19.02"
       class="cls-7" />
    <polyline
       style="fill:none;stroke:#ffffff;stroke-linecap:round;stroke-linejoin:round"
       id="polyline64"
       points="9.69 15.64 6.03 9.02 15.5 9.02 20.79 1.05"
       class="cls-7" />
    <polyline
       style="fill:none;stroke:#ffffff;stroke-linecap:round;stroke-linejoin:round"
       id="polyline66"
       points="18.5 9.02 25.79 9.02 20.55 19.02 13.5 19.02"
       class="cls-7" />
    <polyline
       style="fill:none;stroke:#ffffff;stroke-linecap:round;stroke-linejoin:round"
       id="polyline68"
       points="10.41 0.53 21.5 0.5 31.04 18.02 23.5 18.02"
       class="cls-7" />
    <line
       style="fill:none;stroke:#ffffff;stroke-linecap:round;stroke-linejoin:round"
       id="line70"
       y2="19.02"
       x2="0.5"
       y1="27.4"
       x1="5.5"
       class="cls-7" />
    <line
       style="fill:none;stroke:#ffffff;stroke-linecap:round;stroke-linejoin:round"
       id="line72"
       y2="18.02"
       x2="31.040001"
       y1="27.58"
       x1="25.790001"
       class="cls-7" />
  </g>
</svg>
